<svg height="40" xmlns="http://www.w3.org/2000/svg" viewBox="0 0 448.7 92.78" role="img" aria-label="Logo"><defs><style>.cls-1{fill:#b5945f;}</style></defs><path class="cls-1" d="M48.41,25.23V9.87h4c2.31,0,4.72.05,6.63,1.5a7.58,7.58,0,0,1,2.86,6.13,7.46,7.46,0,0,1-2.46,5.67c-2,1.76-4.17,2.06-6.63,2.06Zm42,19.07H88.06L72.72,6.35,57.33,44.3H48.41V27.48h4.27c3,0,6.12-.4,8.43-2.4a9.94,9.94,0,0,0,3.17-7.48,10,10,0,0,0-3.42-7.78c-2.36-2-5.22-2.21-8.18-2.21H46V44.3H41.94L30.34,27.54c6.28.1,10.85-3.32,10.85-9.89a9.49,9.49,0,0,0-3.82-8.13c-2.56-1.86-5.57-1.91-8.63-1.91H24V44.3H14.63V7.61h-2.4V44.3H2.39v-42h88ZM59.27,46.7H76.06L59.27,63.21Zm6-16,7.43-18.27L80.1,30.75ZM81,33,85.6,44.3H59.79L64.39,33ZM38.92,46.7,22.13,63.21V46.7ZM26.43,25.28V9.87H28c2.2,0,4.77-.1,6.77.85a7.23,7.23,0,0,1,4,6.83,7.61,7.61,0,0,1-2.66,6c-1.91,1.66-4.27,1.76-6.63,1.76Zm1.21,2.26L39.18,44.3H26.43V27.54ZM90.39,86.76h-88V46.7H19.72V83.39h2.41V66.32l1-1L41.3,83.39h3.17L24.79,63.76,42.13,46.7H46V83.39h2.41V46.7h8.43V83.39h2.41V66.32l1-1L78.45,83.39h3.16L61.93,63.76,79.28,46.7H90.39ZM0,92.78H92.76V0H0Z"></path><path d="M435.37,71.9c.31-3.65,1.75-6.29,4.55-6.29,3.15,0,3.92,3.11,4,6.29ZM440,64c-5.29,0-9.56,3.92-9.56,10.06,0,6.33,4.27,9.75,9.6,9.75,4.43,0,7.38-2.29,8.39-6.29l-.82-.27a6,6,0,0,1-6.06,4c-3.88,0-6.18-3-6.18-7.73H448.7c0-6-3.15-9.56-8.74-9.56M419.52,83.83c2.92,0,4.16,1,4.16,2.84,0,2.48-3,3.92-7,3.92-3.23,0-6-1.13-6-3.65,0-1.75,1.13-2.76,3.46-3.11Zm8,1.32c0-3.73-2.88-5.67-7.46-5.67h-6.26c-1.78,0-2.6-.58-2.6-1.75a2.32,2.32,0,0,1,1.48-1.9,10.7,10.7,0,0,0,4.08.74c5.08,0,7.92-2.8,7.92-6.3a5.72,5.72,0,0,0-1.55-4,2.61,2.61,0,0,1,1.86-.86c1.24,0,1.75,1,1.75,2.22a2.41,2.41,0,0,0,2.49-2.37,2.48,2.48,0,0,0-2.72-2.53c-1.83,0-3.23,1.4-4.24,2.76A9.2,9.2,0,0,0,416.73,64c-5.13,0-7.93,2.8-7.93,6.29a5.73,5.73,0,0,0,2.95,5.09c-2,.74-3.46,2.14-3.46,4.2,0,2.29,1.64,3.45,3.81,3.92-3.34.35-5.17,1.79-5.17,3.81,0,3.49,4.74,4.85,9.76,4.85,5.55,0,10.8-2.17,10.8-7M420,70.27c0,3.3-1.13,4.82-3.22,4.82s-3.27-1.52-3.27-4.82,1.17-4.85,3.27-4.85S420,66.93,420,70.27m-13.64,12.2c-2.56-.35-3.57-1.16-3.57-3.57,0-2.61.12-5.48.12-8.36,0-4.43-2.65-6.56-8-6.56-5,0-7.92,2.13-7.92,4.74a2.37,2.37,0,0,0,2.64,2.48,3.64,3.64,0,0,0,2.41-.81,2.34,2.34,0,0,1-.93-2c0-1.79,1.24-2.8,3.34-2.8,2.79,0,3.77,1.52,3.77,4.55v2l-3.07.54c-4.59.82-9.09,2.06-9.09,6.3,0,3.22,2.56,4.85,5.67,4.85s5.75-1.67,6.56-4.16c.27,2.92,1.56,4.08,4.2,4.08a11.76,11.76,0,0,0,3.88-.77Zm-8.15-9v2.17c0,3.73-2.14,5.68-4.43,5.68a2.76,2.76,0,0,1-3-3c0-2.56,1.67-3.57,5-4.27Zm-29.8-7.11h2.95l0,11.85c0,3.69,2.33,5.59,5.75,5.59,4.08,0,6.14-2.8,6.45-6.53l-.82-.19c-.58,2.72-1.86,4-3.76,4s-3-1.12-3-3.45V66.35h6.41l.2-1.79h-6.61V58h-1.08c-.78,3.89-3.23,6.49-6.49,7.15Zm-4.2-2H357v.31c1.56,1,2.53,1.59,2.53,3.88V79.09c0,2.56-.47,2.88-2.14,4v.31h8.94v-.31c-1.67-1.12-2.14-1.44-2.14-4Zm-5.48-6.45a3,3,0,0,0,5.95,0,3,3,0,0,0-5.95,0M345.55,74.39c0-3.92,1.95-6.76,4.35-6.76,1.71,0,2.41,1.2,2.37,2.84a3.26,3.26,0,0,0-.66-6.49c-3.38,0-5.16,2.83-6.06,6l-.15-5.63h-7v.31c1.55,1,2.52,1.59,2.52,3.88V79.09c0,2.56-.47,2.88-2.14,4v.31h10.49V83c-2.68-1-3.69-1.47-3.69-3.84ZM322.48,71.9c.31-3.65,1.74-6.29,4.54-6.29,3.15,0,3.93,3.11,4,6.29ZM327.06,64c-5.28,0-9.56,3.92-9.56,10.06,0,6.33,4.28,9.75,9.6,9.75,4.43,0,7.38-2.29,8.39-6.29l-.81-.27a6.06,6.06,0,0,1-6.07,4c-3.88,0-6.17-3-6.17-7.73H335.8c0-6-3.14-9.56-8.74-9.56m-42,19.42h9.79v-.35c-1.82-1.12-2.44-1.55-2.44-4.11V70.23h14.6v8.71c0,2.56-.62,3-2.44,4.11v.35h9.79v-.35c-1.83-1.12-2.45-1.55-2.45-4.11V60.68c0-2.57.62-3,2.45-4.16v-.31h-9.79v.31c1.82,1.16,2.44,1.59,2.44,4.16v7.84h-14.6V60.68c0-2.57.62-3,2.44-4.16v-.31H285.1v.31c1.83,1.16,2.45,1.59,2.45,4.16V78.94c0,2.56-.62,3-2.45,4.11Zm-13-29.1h-7.27v.32c1.6,1,2.61,1.59,2.61,3.88V79.09c0,2.56-.47,2.88-2.14,4v.31h8.93v-.31c-1.67-1.12-2.13-1.44-2.13-4ZM264,82.47c-2.57-.35-3.58-1.16-3.58-3.57,0-2.61.12-5.48.12-8.36,0-4.43-2.64-6.56-8-6.56-5,0-7.93,2.13-7.93,4.74a2.37,2.37,0,0,0,2.64,2.48,3.62,3.62,0,0,0,2.41-.81,2.36,2.36,0,0,1-.93-2c0-1.79,1.24-2.8,3.34-2.8,2.8,0,3.77,1.52,3.77,4.55v2l-3.07.54c-4.58.82-9.09,2.06-9.09,6.3,0,3.22,2.56,4.85,5.67,4.85s5.75-1.67,6.57-4.16c.27,2.92,1.55,4.08,4.19,4.08a11.83,11.83,0,0,0,3.89-.77Zm-8.16-9v2.17c0,3.73-2.14,5.68-4.43,5.68a2.77,2.77,0,0,1-3-3c0-2.56,1.67-3.57,5-4.27Zm-24,.93c0-3.92,1.94-6.76,4.35-6.76,1.71,0,2.41,1.2,2.37,2.84a3.26,3.26,0,0,0-.66-6.49c-3.38,0-5.17,2.83-6.06,6l-.16-5.63h-7v.31c1.56,1,2.53,1.59,2.53,3.88V79.09c0,2.56-.47,2.88-2.14,4v.31h10.49V83c-2.68-1-3.69-1.47-3.69-3.84Zm-24.55-10h-7.19v.31c1.55,1,2.52,1.59,2.52,3.88v8.51c0,4,2.06,6.72,6.06,6.72,3.31,0,5.52-1.86,6.65-5.24V83.4h6.8v-.31c-1.67-1.12-2.14-1.44-2.14-4V64.37h-7.15v.31c1.56,1,2.49,1.59,2.49,3.88v5.91c0,4.12-2,6.25-4.55,6.25s-3.49-2-3.49-4.35Zm-24.05,2h2.95l0,11.85c0,3.69,2.33,5.59,5.75,5.59,4.08,0,6.14-2.8,6.45-6.53l-.82-.19c-.58,2.72-1.86,4-3.76,4s-3-1.12-3-3.45V66.35h6.41l.2-1.79h-6.61V58h-1.08c-.78,3.89-3.23,6.49-6.49,7.15Zm-4.16-12h-7.26v.32c1.59,1,2.6,1.59,2.6,3.88V79.09c0,2.56-.47,2.88-2.14,4v.31h8.94v-.31c-1.67-1.12-2.14-1.44-2.14-4ZM154.76,64.37h-7.18v.31c1.55,1,2.52,1.59,2.52,3.88v8.51c0,4,2.06,6.72,6.06,6.72,3.3,0,5.52-1.86,6.64-5.24V83.4h6.8v-.31c-1.67-1.12-2.13-1.44-2.13-4V64.37h-7.15v.31c1.55,1,2.48,1.59,2.48,3.88v5.91c0,4.12-2,6.25-4.54,6.25s-3.5-2-3.5-4.35Zm-19.5-6.76c4,0,6.33,3,8.62,6.91h.43v-8.7H144L141.9,58a11.33,11.33,0,0,0-7.11-2.18,13.66,13.66,0,0,0-14,14c0,8.35,5.63,14,13.63,14a10.72,10.72,0,0,0,11-8.35l-.62-.27c-2.14,4.31-5.17,5.75-8.82,5.75-5.4,0-9.67-4.16-9.67-11.58,0-6.8,3.57-11.73,9-11.73"></path><path d="M437.9,26c0-4.16,2.14-7.61,4.78-7.61,1.55,0,2.21,1,2.13,2.48a2.43,2.43,0,0,0,2.45-2.52c0-1.67-1.16-2.8-3.18-2.8-3.31,0-5.17,2.76-6.18,5.79l-.16-5.4h-5.82v.23c1.47.93,2.6,1.67,2.6,3.77V30.61c0,2.56-.55,2.91-2.22,4v.27h9.37v-.35c-2.88-.89-3.77-1.36-3.77-3.61Zm-12.7-.62c0,5.09-1.95,8.24-5.72,8.24s-5.71-3.15-5.71-8.24,2-8.24,5.71-8.24,5.72,3.15,5.72,8.24m3.76,0c0-5.75-4-9.83-9.48-9.83S410,19.65,410,25.4s4.05,9.83,9.48,9.83S429,31.15,429,25.4m-27.11-7.77h5.44l.19-1.59h-5.63V12.15c0-3.3,1.43-5.2,3.73-5.2a2.43,2.43,0,0,1,2.72,2.48,4.29,4.29,0,0,1-.39,1.87,4.34,4.34,0,0,0,1,.15,2.18,2.18,0,0,0,2.44-2.21c0-2.14-2.4-3.65-5.51-3.65-4.47,0-7.42,2.83-7.42,7.49V15.8l-2.72.78v1.05h2.72v13c0,2.56-.55,2.91-2.22,4v.27h9.48v-.35c-2.87-.89-3.88-1.36-3.88-3.61Zm-30.38,5.94c.35-3.84,2.21-6.45,5.28-6.45,3.69,0,4.7,3.15,4.78,6.45Zm5.32-8c-5,0-9.05,3.92-9.05,10.06s4.11,9.6,9.2,9.6c4.36,0,7.15-2.29,8.05-6.26l-.82-.27A6.17,6.17,0,0,1,378,33.13c-4.11,0-6.56-3.07-6.56-8.08h13.79c0-6-3.07-9.48-8.39-9.48m-25.91,2.06h3.06l0,12.32c0,3.38,2.17,5.28,5.4,5.28,3.49,0,5.47-2.6,5.75-6.26l-.78-.15c-.54,2.83-1.83,4.16-3.89,4.16s-3-1.21-3-3.46V17.63h6.53l.19-1.59h-6.72V9.59h-1.08c-.63,3.84-2.14,6.37-5.4,7ZM333.74,16h-6v.23c1.48.93,2.6,1.67,2.6,3.77v8.55c0,4.15,2.14,6.72,6,6.72,3.31,0,5.64-1.83,6.73-5.17v4.78h5.59v-.27c-1.67-1-2.21-1.4-2.21-4V16h-6v.23c1.52.93,2.65,1.67,2.65,3.77V25.9c0,4.43-2.37,7-5.33,7s-4-2.45-4-5Zm-22.22,1.67h3.07l0,12.32c0,3.38,2.18,5.28,5.4,5.28,3.5,0,5.48-2.6,5.75-6.26l-.78-.15C324.38,31.65,323.1,33,321,33s-3-1.21-3-3.46V17.63h6.53l.19-1.59H318V9.59h-1.09c-.62,3.84-2.14,6.37-5.4,7ZM307.09,16h-6v.23c1.48.93,2.6,1.67,2.6,3.77V30.61c0,2.56-.54,2.91-2.21,4v.27h7.81v-.27c-1.67-1-2.22-1.4-2.22-4Zm-4.35-6.61a2.4,2.4,0,0,0,2.45,2.41,2.43,2.43,0,1,0-2.45-2.41m-18.26,8.28h3.07l0,12.32c0,3.38,2.18,5.28,5.4,5.28,3.5,0,5.48-2.6,5.75-6.26l-.77-.15C297.34,31.65,296.06,33,294,33s-3-1.21-3-3.46V17.63h6.53l.19-1.59H291V9.59h-1.09c-.62,3.84-2.13,6.37-5.4,7Zm-10.88-.47c2.8,0,4.82,2.1,6.53,4.82h.43V15.57h-.27l-1.48,1.55a9.58,9.58,0,0,0-5.24-1.55c-3.7,0-6.45,2.25-6.45,5.48,0,3.07,1.67,4.7,6.48,5.67,3.27.62,5,1.32,5,3.5s-1.83,3.38-4.2,3.38c-2.95,0-5.28-1.91-7.26-5.56h-.55l.43,7.19h.31l1.36-1.67a11,11,0,0,0,5.71,1.67c4.12,0,7.19-2.33,7.19-5.95,0-3.18-1.91-4.85-7-5.82C271.31,22.8,270,21.9,270,20s1.32-2.88,3.61-2.88m-12.54,5.17c0-4.16-2.1-6.76-6.06-6.76a6.94,6.94,0,0,0-6.84,5.09L248,16h-5.83v.23c1.48.93,2.61,1.67,2.61,3.77V30.61c0,2.56-.55,2.91-2.22,4v.27h7.81v-.27c-1.67-1-2.21-1.4-2.21-4V24.89c0-4.46,2.52-6.91,5.44-6.91,3.07,0,4.08,2.37,4.08,4.93v7.7c0,2.56-.55,2.91-2.22,4v.27h7.81v-.27c-1.67-1-2.21-1.4-2.21-4ZM233,12V30.49c0,2.56-.62,3-2.45,4v.31H239v-.31c-1.83-1-2.49-1.48-2.49-4V12c0-2.57.66-3,2.49-4V7.65h-8.47V8c1.83,1,2.45,1.47,2.45,4m-15.7-6.26h-6V6c1.48.94,2.64,1.64,2.64,3.77V30.61c0,2.56-.54,2.91-2.21,4v.27h7.81v-.27c-1.67-1-2.22-1.4-2.22-4Zm-7,28.21c-2.64-.2-3.81-1-3.81-3.23s.12-5.24.12-8.7c0-4.23-2.41-6.45-7.3-6.45-4.7,0-7.54,2.25-7.54,4.74a2,2,0,0,0,2.17,2.25,3.19,3.19,0,0,0,1.91-.58,2.69,2.69,0,0,1-.7-1.9c0-1.87,1.4-3,3.69-3,3,0,4.27,1.43,4.27,5.05v1.47l-3.1.55c-4.71.85-9.13,2.09-9.13,6.25,0,3.19,2.48,4.82,5.59,4.82A6.94,6.94,0,0,0,203.13,31c.12,2.84,1.28,4.12,3.65,4.12a10.53,10.53,0,0,0,3.46-.66Zm-7.19-9v2c0,4.16-2.79,6.26-5.24,6.26-2.1,0-3.42-1.05-3.42-3.19,0-2.72,2.06-3.77,5.83-4.5Zm-24.59,10-1.24,2.76c-.93,2.13-1.75,3.34-3.15,3.34a1.71,1.71,0,0,1-1.71-1.83,3.78,3.78,0,0,1,.16-.93,2.69,2.69,0,0,0-2.37,2.52,2.88,2.88,0,0,0,3.14,2.8c3,0,4.08-2.17,5.37-5.28l7.53-17.76a10.22,10.22,0,0,1,3.07-4.35V16H183v.23c1.28.74,2.06,1.28,2.06,2a5.48,5.48,0,0,1-.59,2.14L180.13,31l-4.58-10.87a6.21,6.21,0,0,1-.78-2.37c0-.59.43-.94,1.4-1.6V16h-7.23v.23a10.57,10.57,0,0,1,3.19,4.35ZM163.78,25.4c0,5.09-1.95,8.24-5.71,8.24s-5.72-3.15-5.72-8.24,2-8.24,5.72-8.24,5.71,3.15,5.71,8.24m3.76,0c0-5.75-4-9.83-9.47-9.83s-9.48,4.08-9.48,9.83,4,9.83,9.48,9.83,9.47-4.08,9.47-9.83m-40.71-2.95h5.09c3.69,0,4.74,1.47,5.79,4.47L139,30.64a29.56,29.56,0,0,0,1.71,4.2h6.18v-.31c-2.3-.93-3.5-1.79-4.43-4.55l-1.13-3.26a6.47,6.47,0,0,0-6.06-4.93v-.12c4,0,8-2,8-6.84,0-5.28-4.54-7.18-10.14-7.18H120.85V8c1.82,1,2.44,1.47,2.44,4V30.49c0,2.56-.62,3-2.44,4v.31h8.47v-.31c-1.83-1-2.49-1.48-2.49-4Zm0-13.29h5.71c4.08,0,6.92,1.63,6.92,5.71,0,4.62-3.19,6-6.92,6h-5.71Z"></path></svg>